<?xml version="1.0" standalone="no"?><!DOCTYPE svg PUBLIC "-//W3C//DTD SVG 1.1//EN" "http://www.w3.org/Graphics/SVG/1.1/DTD/svg11.dtd"><svg t="1562381370503" class="icon" viewBox="0 0 1024 1024" version="1.1" xmlns="http://www.w3.org/2000/svg" p-id="4067" xmlns:xlink="http://www.w3.org/1999/xlink" width="200" height="200"><defs><style type="text/css"></style></defs><path d="M926.921387 37.80608c32.733867 0 59.272533 26.54208 59.272533 59.275947l0 829.83936c0 32.733867-26.538667 59.272533-59.272533 59.272533L97.082027 986.19392c-32.733867 0-59.275947-26.538667-59.275947-59.272533L37.80608 97.082027c0-32.733867 26.54208-59.275947 59.275947-59.275947L926.921387 37.80608zM176.653653 176.19968l0 76.479147 649.007787 0L825.66144 176.19968 176.653653 176.19968zM217.719467 316.146347l0 311.934293 55.804587 0 67.76832 142.31552L157.259093 770.39616l0 75.021653 685.69088 0 0-75.021653-188.7232 0 68.672853-142.31552 60.777813 0L783.67744 316.146347 217.719467 316.146347zM684.885333 392.891733l0 161.09568L312.576 553.987413l0-161.09568L684.885333 392.891733zM570.770773 770.39616l-144.11776 0-67.03104-142.31552 279.821653 0L570.770773 770.39616z" p-id="4068"></path></svg>